<svg width="512" height="512" viewBox="0 0 512 512" fill="none" xmlns="http://www.w3.org/2000/svg">
  <!-- Fundo com gradiente -->
  <defs>
    <linearGradient id="bgGradient" x1="0%" y1="0%" x2="100%" y2="100%">
      <stop offset="0%" style="stop-color:#6366f1;stop-opacity:1" />
      <stop offset="100%" style="stop-color:#4f46e5;stop-opacity:1" />
    </linearGradient>
    <linearGradient id="textGradient" x1="0%" y1="0%" x2="100%" y2="100%">
      <stop offset="0%" style="stop-color:#ffffff;stop-opacity:1" />
      <stop offset="100%" style="stop-color:#e0e7ff;stop-opacity:1" />
    </linearGradient>
  </defs>
  
  <!-- Fundo arredondado -->
  <rect width="512" height="512" rx="120" fill="url(#bgGradient)"/>
  
  <!-- Letra A -->
  <path d="M 150 380 L 150 200 L 200 200 L 256 320 L 312 200 L 362 200 L 362 380 L 312 380 L 312 280 L 256 400 L 200 400 L 200 280 L 200 380 Z" 
        fill="url(#textGradient)" 
        stroke="white" 
        stroke-width="8" 
        stroke-linejoin="round"/>
  
  <!-- Letra B -->
  <path d="M 200 200 L 200 380 L 280 380 Q 330 380 330 330 Q 330 290 300 290 L 280 290 L 280 200 Z M 280 290 Q 310 290 310 330 Q 310 370 280 370 L 220 370 L 220 210 L 280 210 Q 310 210 310 250 Q 310 290 280 290 Z" 
        fill="url(#textGradient)" 
        stroke="white" 
        stroke-width="8" 
        stroke-linejoin="round"/>
</svg>

